<svg width="48" height="48" viewBox="0 0 48 48" fill="none" xmlns="http://www.w3.org/2000/svg">
<path d="M20.3598 40.8481L19.9998 45.2001H2.74383C2.26533 45.2016 1.81125 44.9889 1.50614 44.6203C1.20103 44.2517 1.07691 43.7658 1.16783 43.2961L4.67183 25.3121C4.74454 24.9363 5.07315 24.6647 5.45583 24.6641H7.67983L5.01583 40.6801C4.97289 40.9544 5.07415 41.2316 5.28386 41.4137C5.49357 41.5957 5.7822 41.6571 6.04783 41.5761C10.6692 40.0665 15.6092 39.8152 20.3598 40.8481Z" fill="#A0522D"/>
<path d="M45.2566 45.2001H28.0006L27.6406 40.8481C32.3913 39.8152 37.3313 40.0665 41.9526 41.5761C42.2182 41.6571 42.5069 41.5957 42.7166 41.4137C42.9263 41.2316 43.0276 40.9544 42.9846 40.6801L40.3206 24.6641H42.5446C42.9273 24.6647 43.2559 24.9363 43.3286 25.3121L46.8326 43.2961C46.9235 43.7658 46.7994 44.2517 46.4943 44.6203C46.1892 44.9889 45.7351 45.2016 45.2566 45.2001Z" fill="#A0522D"/>
<path d="M46.8323 43.2961L43.3283 25.3121C43.2556 24.9363 42.927 24.6647 42.5443 24.6641H40.3203L40.3259 24.6961C40.6296 24.7665 40.8647 25.0069 40.9283 25.3121L44.4323 43.2961C44.5232 43.7658 44.3991 44.2517 44.094 44.6203C43.7889 44.9889 43.3348 45.2016 42.8563 45.2001H45.2563C45.7348 45.2016 46.1889 44.9889 46.494 44.6203C46.7991 44.2517 46.9232 43.7658 46.8323 43.2961Z" fill="#783E22"/>
<path d="M41.9535 41.5768C37.3322 40.0673 32.3922 39.816 27.6415 40.8488C26.3917 41.1064 25.1719 41.4924 24.0015 42.0008C22.8311 41.4924 21.6113 41.1064 20.3615 40.8488C15.6109 39.816 10.6709 40.0673 6.04952 41.5768C5.78389 41.6578 5.49526 41.5965 5.28555 41.4144C5.07585 41.2324 4.97458 40.9552 5.01752 40.6808L7.68153 24.6648L7.90552 23.3128C7.96286 22.9697 8.23375 22.702 8.57752 22.6488C9.12152 22.5688 9.68152 22.4888 10.2415 22.4248C11.2191 24.3251 13.1765 25.5199 15.3135 25.5208C15.9877 25.5199 16.6565 25.4007 17.2895 25.1688C17.7813 26.5948 18.9979 27.6491 20.4794 27.9332C21.9608 28.2173 23.4811 27.6878 24.4655 26.5448C25.2664 26.8563 26.1182 27.0164 26.9775 27.0168H27.0255C27.1935 28.4568 27.9455 29.3048 30.4575 30.1448C31.2273 30.3906 31.914 30.8447 32.4415 31.4568C32.9118 32.0394 33.7086 32.2443 34.4015 31.9608C35.0115 31.6973 35.4074 31.0973 35.4095 30.4328C35.4104 30.259 35.3834 30.0861 35.3295 29.9208C35.1002 29.1569 34.7432 28.4374 34.2735 27.7928C35.8627 26.9377 36.978 25.4075 37.3055 23.6328C37.6172 23.2879 37.8687 22.8931 38.0495 22.4648C38.5135 22.5208 38.9695 22.5768 39.4255 22.6488C39.7693 22.702 40.0402 22.9697 40.0975 23.3128L40.3215 24.6648L42.9855 40.6808C43.0285 40.9552 42.9272 41.2324 42.7175 41.4144C42.5078 41.5965 42.2192 41.6578 41.9535 41.5768Z" fill="#F5F5F5"/>
<path d="M42.9844 40.6808L40.3204 24.6648L40.0964 23.3128C40.0391 22.9697 39.7682 22.7021 39.4244 22.6488C38.9684 22.5768 38.5124 22.5208 38.0484 22.4648C37.9388 22.715 37.8048 22.9538 37.6484 23.1776C37.6677 23.2212 37.6829 23.2665 37.694 23.3128L37.918 24.6648L40.582 40.6808C40.6076 40.8453 40.5796 41.0136 40.502 41.1608C40.982 41.2864 41.462 41.4216 41.9476 41.5776C42.214 41.6609 42.5046 41.6004 42.7157 41.4178C42.9268 41.2352 43.0284 40.9565 42.9844 40.6808Z" fill="#CFD8DC"/>
<path d="M28 45.2006C28 46.0806 26.208 46.8006 24 46.8006C21.792 46.8006 20 46.0806 20 45.2006L20.36 40.8486C21.6098 41.1062 22.8296 41.4923 24 42.0006C25.1704 41.4923 26.3902 41.1062 27.64 40.8486L28 45.2006Z" fill="#783E22"/>
<path d="M38.4016 20.7926C38.4048 21.3687 38.2848 21.9387 38.0496 22.4646C37.8688 22.8929 37.6173 23.2877 37.3056 23.6326C36.9781 25.4073 35.8628 26.9375 34.2736 27.7926C34.7432 28.4372 35.1003 29.1567 35.3296 29.9206C35.3834 30.0859 35.4105 30.2588 35.4096 30.4326C35.4074 31.0971 35.0116 31.6971 34.4016 31.9606C33.7087 32.2441 32.9119 32.0392 32.4416 31.4566C31.9141 30.8445 31.2274 30.3904 30.4576 30.1446C27.9456 29.3046 27.1936 28.4566 27.0256 27.0166H26.9776C26.1183 27.0162 25.2665 26.8561 24.4656 26.5446C23.4812 27.6876 21.9609 28.2171 20.4795 27.933C18.998 27.649 17.7814 26.5946 17.2896 25.1686C16.6566 25.4005 15.9878 25.5197 15.3136 25.5206C13.1514 25.5191 11.1752 24.2977 10.2068 22.3645C9.23853 20.4312 9.44393 18.1171 10.7376 16.3846C10.6414 16.1234 10.5926 15.847 10.5936 15.5686C10.5912 14.3801 11.4285 13.3553 12.5936 13.1206C12.5856 13.0246 12.5776 12.9286 12.5776 12.8246C12.5785 11.04 14.025 9.5935 15.8096 9.59262C16.2947 9.59031 16.7737 9.69981 17.2096 9.91262C18.0613 8.4787 19.6058 7.60001 21.2736 7.60062C22.4179 7.59646 23.5233 8.01528 24.3776 8.77662C24.868 7.98557 25.76 7.5357 26.6877 7.6116C27.6153 7.68749 28.4223 8.27638 28.7776 9.13662C29.0061 9.1111 29.2357 9.09775 29.4656 9.09662C32.5653 9.10175 35.1448 11.4796 35.4016 14.5686H35.4256C36.0847 14.5686 36.7168 14.831 37.1821 15.2978C37.6474 15.7646 37.9077 16.3975 37.9056 17.0566C37.9041 17.4876 37.794 17.9113 37.5856 18.2886C38.1165 19.0155 38.4023 19.8925 38.4016 20.7926Z" fill="#E91E63"/>
<path d="M37.5852 18.2887C37.7936 17.9114 37.9037 17.4877 37.9052 17.0567C37.9074 16.3976 37.647 15.7647 37.1817 15.2979C36.7164 14.8311 36.0844 14.5687 35.4252 14.5687H35.4012C35.1444 11.4797 32.5649 9.10181 29.4653 9.09668C29.2354 9.09781 29.0057 9.11117 28.7773 9.13668C28.5095 8.48093 27.9732 7.97158 27.3046 7.73794C26.6359 7.50429 25.8991 7.56879 25.2812 7.91508C25.7756 8.18487 26.1625 8.61606 26.3773 9.13668C26.6057 9.11117 26.8354 9.09781 27.0653 9.09668C30.1649 9.10181 32.7444 11.4797 33.0012 14.5687H33.0252C33.6844 14.5687 34.3164 14.8311 34.7817 15.2979C35.247 15.7647 35.5074 16.3976 35.5052 17.0567C35.5037 17.4877 35.3936 17.9114 35.1852 18.2887C35.7161 19.0156 36.0019 19.8926 36.0012 20.7927C36.0044 21.3687 35.8844 21.9388 35.6493 22.4647C35.4685 22.893 35.217 23.2878 34.9052 23.6327C34.5777 25.4074 33.4625 26.9375 31.8732 27.7927C32.3429 28.4373 32.6999 29.1568 32.9292 29.9207C32.9831 30.086 33.0101 30.2588 33.0092 30.4327C33.0034 30.8543 32.8368 31.2577 32.5437 31.5607C33.006 32.0613 33.7283 32.2267 34.3624 31.9771C34.9964 31.7275 35.4122 31.1141 35.4092 30.4327C35.4101 30.2588 35.3831 30.086 35.3292 29.9207C35.0999 29.1568 34.7429 28.4373 34.2732 27.7927C35.8625 26.9375 36.9777 25.4074 37.3053 23.6327C37.617 23.2878 37.8685 22.893 38.0492 22.4647C38.2844 21.9388 38.4044 21.3687 38.4012 20.7927C38.4019 19.8926 38.1161 19.0156 37.5852 18.2887Z" fill="#AD1457"/>
<path d="M32.4496 20.787C32.321 20.5316 32.0659 20.3643 31.7804 20.348C31.495 20.3317 31.2225 20.4689 31.0656 20.708C30.9088 20.9471 30.8914 21.2516 31.02 21.507C31.283 22.0358 31.119 22.6774 30.6344 23.015C30.3498 23.2045 29.9983 23.2644 29.667 23.1799C29.3357 23.0954 29.0558 22.8744 28.8968 22.5718C28.6991 22.1766 28.2184 22.0165 27.8232 22.2142C27.428 22.4119 27.2679 22.8926 27.4656 23.2878C28.1553 24.6641 29.8301 25.2207 31.2064 24.531C32.5827 23.8413 33.1393 22.1665 32.4496 20.7902V20.787Z" fill="#AD1457"/>
<path d="M27.601 20.3953C28.6374 19.6812 29.3501 18.587 29.5842 17.3505C29.6438 17.0674 29.5459 16.7742 29.3282 16.5837C29.1105 16.3932 28.8069 16.3351 28.5342 16.4317C28.2615 16.5283 28.0622 16.7646 28.013 17.0497C27.8561 17.8748 27.3801 18.6047 26.6882 19.0809C25.3572 19.9773 23.5721 19.7738 22.477 18.6009C22.179 18.2739 21.6724 18.2505 21.3454 18.5485C21.0185 18.8465 20.995 19.3531 21.293 19.6801C21.9717 20.4294 22.8685 20.9465 23.857 21.1585C23.4088 21.7884 22.6829 22.1618 21.9098 22.1601C21.468 22.1601 21.1098 22.5182 21.1098 22.9601C21.1098 23.4019 21.468 23.7601 21.9098 23.7601C23.5659 23.7667 25.0519 22.7438 25.637 21.1945C26.3429 21.0772 27.0138 20.8042 27.601 20.3953Z" fill="#AD1457"/>
<path d="M16.8992 22.1801C16.539 22.2844 16.1507 22.2143 15.8497 21.9905C15.5487 21.7668 15.3696 21.4151 15.3656 21.0401V21.0201C15.3652 20.809 15.2805 20.6068 15.1302 20.4586C14.98 20.3103 14.7767 20.2282 14.5656 20.2305C14.1219 20.2349 13.7647 20.5964 13.7656 21.0401C13.7661 22.5793 15.0121 23.8278 16.5512 23.8313C16.8221 23.8305 17.0915 23.7909 17.3512 23.7137C17.7716 23.5854 18.0098 23.1419 17.8845 22.7206C17.7592 22.2992 17.3175 22.0579 16.8952 22.1801H16.8992Z" fill="#AD1457"/>
<path d="M22.2398 14.0002C22.2398 13.5584 21.8816 13.2002 21.4398 13.2002C19.4083 13.2024 17.762 14.8487 17.7598 16.8802C17.7598 17.322 18.1179 17.6802 18.5598 17.6802C19.0016 17.6802 19.3598 17.322 19.3598 16.8802C19.3598 16.3285 19.5789 15.7995 19.969 15.4094C20.3591 15.0193 20.8881 14.8002 21.4398 14.8002C21.8816 14.8002 22.2398 14.442 22.2398 14.0002Z" fill="#AD1457"/>
<path d="M23.9992 2.80039C23.5574 2.80039 23.1992 2.44222 23.1992 2.00039V1.20039C23.1992 0.758563 23.5574 0.400391 23.9992 0.400391C24.441 0.400391 24.7992 0.758563 24.7992 1.20039V2.00039C24.7992 2.44222 24.441 2.80039 23.9992 2.80039Z" fill="#FFDC00"/>
<path d="M36.8936 8.30634C36.5701 8.30627 36.2785 8.11135 36.1547 7.81246C36.0309 7.51356 36.0993 7.16953 36.328 6.94073L37.128 6.14073C37.3289 5.93277 37.6263 5.84936 37.906 5.92258C38.1857 5.99579 38.4041 6.21423 38.4774 6.49393C38.5506 6.77363 38.4672 7.07108 38.2592 7.27194L37.4592 8.07194C37.3092 8.22197 37.1058 8.30629 36.8936 8.30634Z" fill="#FFDC00"/>
<path d="M11.1059 8.30634C10.8938 8.30629 10.6903 8.22197 10.5403 8.07194L9.74034 7.27194C9.53238 7.07108 9.44897 6.77363 9.52219 6.49393C9.5954 6.21423 9.81383 5.99579 10.0935 5.92258C10.3732 5.84936 10.6707 5.93277 10.8715 6.14073L11.6715 6.94073C11.9003 7.16953 11.9687 7.51356 11.8449 7.81246C11.7211 8.11135 11.4295 8.30627 11.1059 8.30634Z" fill="#FFDC00"/>
<path d="M17.2644 4.94087C16.9409 4.94095 16.6491 4.74614 16.5252 4.44726L15.6068 2.22966C15.4901 1.96432 15.526 1.65657 15.7007 1.42525C15.8754 1.19393 16.1616 1.07523 16.4488 1.115C16.736 1.15476 16.9791 1.34677 17.0844 1.61686L18.0036 3.83446C18.0852 4.0306 18.0854 4.25112 18.0042 4.44741C17.923 4.6437 17.7671 4.79965 17.5708 4.88086C17.4735 4.92052 17.3695 4.94089 17.2644 4.94087Z" fill="#FFDC00"/>
<path d="M30.7358 4.94087C30.6307 4.94064 30.5266 4.91999 30.4294 4.88006C30.2333 4.79884 30.0775 4.64303 29.9964 4.44693C29.9152 4.25083 29.9153 4.03051 29.9966 3.83446L30.9158 1.61686C31.0211 1.34677 31.2643 1.15476 31.5514 1.115C31.8386 1.07523 32.1248 1.19393 32.2995 1.42525C32.4742 1.65657 32.5102 1.96432 32.3934 2.22966L31.475 4.44726C31.3511 4.74614 31.0593 4.94095 30.7358 4.94087Z" fill="#FFDC00"/>
<path d="M40.2595 14.4655C39.877 14.4667 39.5471 14.1968 39.4725 13.8216C39.3978 13.4464 39.5993 13.0709 39.9531 12.9255L42.1708 12.0071C42.4348 11.8978 42.7372 11.9377 42.9639 12.1117C43.1906 12.2858 43.3073 12.5676 43.2699 12.8509C43.2326 13.1343 43.0468 13.3762 42.7828 13.4855L40.5659 14.4039C40.4689 14.4444 40.3647 14.4653 40.2595 14.4655Z" fill="#FFDC00"/>
<path d="M7.7399 14.4655C7.63471 14.4653 7.53059 14.4444 7.4335 14.4039L5.2167 13.4855C4.95261 13.3762 4.76691 13.1343 4.72954 12.8509C4.69217 12.5676 4.80881 12.2858 5.03554 12.1117C5.26226 11.9377 5.56461 11.8978 5.8287 12.0071L8.0463 12.9255C8.40017 13.0709 8.60161 13.4464 8.52696 13.8216C8.45231 14.1968 8.12246 14.4667 7.7399 14.4655Z" fill="#FFDC00"/>
<path d="M44.1151 25.1632C43.9705 24.41 43.3117 23.8653 42.5447 23.8648H40.9999L40.8863 23.184C40.773 22.5002 40.2342 21.966 39.5495 21.8584C39.3975 21.8344 39.2439 21.8184 39.0927 21.7976C39.3547 20.5746 39.137 19.2976 38.4847 18.2304C38.8293 17.3364 38.765 16.3363 38.3087 15.4938C37.8523 14.6513 37.0498 14.051 36.1127 13.8512C35.5136 10.6448 32.7241 8.31406 29.4623 8.29442C29.3823 8.29442 29.3111 8.30482 29.2351 8.30722C28.7139 7.4887 27.8546 6.94546 26.8917 6.82569C25.9287 6.70592 24.9625 7.02211 24.2567 7.68802C23.3675 7.11003 22.33 6.80189 21.2695 6.80082C19.5607 6.80781 17.9503 7.60093 16.9031 8.95122C15.7403 8.61215 14.4864 8.82034 13.4956 9.51699C12.5048 10.2136 11.8847 11.3231 11.8103 12.532C10.589 13.0454 9.79426 14.2408 9.79349 15.5656C9.796 15.7953 9.82282 16.024 9.87349 16.248C8.7934 17.8763 8.51117 19.9069 9.10629 21.768C8.89189 21.7976 8.67269 21.824 8.46629 21.8544C7.77801 21.9583 7.23447 22.4928 7.11909 23.1792L7.00549 23.8624H5.45669C4.69097 23.8629 4.03296 24.4059 3.88709 25.1576L0.383894 43.1432C0.247082 43.8476 0.432606 44.5762 0.889611 45.1294C1.34662 45.6826 2.02716 46.0023 2.74469 46.0008H19.4279C20.0903 47.0936 22.1031 47.6008 24.0007 47.6008C25.8783 47.6008 27.8719 47.1056 28.5535 46.0008H45.2567C45.9741 46.0022 46.6544 45.6826 47.1114 45.1297C47.5684 44.5767 47.754 43.8483 47.6175 43.144L44.1151 25.1632ZM12.2127 17.0136C11.5631 16.6231 11.2531 15.8478 11.4544 15.117C11.6556 14.3863 12.3188 13.879 13.0767 13.876C13.6071 13.8744 14.1063 14.1266 14.4199 14.5544C14.5902 14.7839 14.8701 14.9051 15.154 14.8724C15.4379 14.8396 15.6828 14.6578 15.7964 14.3956C15.91 14.1333 15.875 13.8303 15.7047 13.6008C15.1615 12.8748 14.3382 12.4103 13.4359 12.3208C13.6744 11.2004 14.6624 10.3984 15.8079 10.3952C15.9055 10.4002 16.0027 10.4109 16.0991 10.4272C16.0347 10.5912 15.9787 10.7584 15.9311 10.928C15.8315 11.3515 16.0886 11.7769 16.5098 11.8857C16.931 11.9945 17.3619 11.7468 17.4799 11.328C17.5709 10.9764 17.7106 10.6393 17.8951 10.3264C18.6047 9.13757 19.885 8.407 21.2695 8.40082C22.023 8.40415 22.7593 8.62651 23.3887 9.04082C23.2688 9.3777 23.2053 9.73206 23.2007 10.0896C23.2007 10.5314 23.5589 10.8896 24.0007 10.8896C24.4425 10.8896 24.8007 10.5314 24.8007 10.0896C24.8007 9.16023 25.5541 8.40682 26.4835 8.40682C27.4129 8.40682 28.1663 9.16023 28.1663 10.0896C28.1663 10.5314 28.5245 10.8896 28.9663 10.8896C29.4081 10.8896 29.7663 10.5314 29.7663 10.0896C29.7663 10.028 29.7511 9.96962 29.7479 9.90802C32.0386 10.0494 33.9648 11.6776 34.4855 13.9128C34.1125 14.0213 33.7621 14.1961 33.4511 14.4288C33.2224 14.6003 33.1026 14.8807 33.1368 15.1645C33.171 15.4483 33.354 15.6922 33.6168 15.8045C33.8797 15.9168 34.1824 15.8803 34.4111 15.7088C35.0504 15.2355 35.9335 15.2732 36.53 15.7994C37.1266 16.3255 37.2744 17.197 36.8847 17.8904C36.7105 18.1966 36.4459 18.4414 36.1271 18.5912C35.7928 18.7531 35.6138 19.1238 35.6951 19.4863C35.7764 19.8487 36.0965 20.1076 36.4679 20.1112C36.5852 20.1114 36.7011 20.0854 36.8071 20.0352C37.0191 19.9325 37.2195 19.8072 37.4047 19.6616C37.8182 20.8373 37.5589 22.1448 36.7279 23.0736L36.7087 23.0936C35.6665 24.2226 34.0039 24.5278 32.6287 23.8424C32.2715 23.6649 31.9501 23.423 31.6807 23.1288C31.3822 22.803 30.8761 22.7808 30.5503 23.0792C30.2244 23.3777 30.2022 23.8838 30.5007 24.2096C30.8987 24.6454 31.3728 25.0049 31.8999 25.2704C33.0401 25.8614 34.3659 25.984 35.5951 25.612C34.8045 26.6915 33.6213 27.417 32.3007 27.632C31.8898 27.6989 31.5989 28.0697 31.6317 28.4846C31.6645 28.8996 32.01 29.2201 32.4263 29.2216C32.4689 29.2216 32.5114 29.2184 32.5535 29.212C33.0406 29.1277 33.5167 28.9887 33.9727 28.7976C34.2191 29.2333 34.4192 29.6937 34.5695 30.1712C34.597 30.2546 34.6111 30.3418 34.6111 30.4296C34.6109 30.7754 34.4044 31.0877 34.0863 31.2232C33.7183 31.3655 33.3005 31.2533 33.0535 30.9456C32.4339 30.2181 31.6226 29.679 30.7119 29.3896C28.9831 28.8104 28.3159 28.2928 28.0327 27.7296C28.4478 27.6778 28.8579 27.5922 29.2591 27.4736C29.5323 27.3896 29.74 27.1662 29.8038 26.8875C29.8677 26.6089 29.778 26.3173 29.5686 26.1227C29.3592 25.9281 29.0619 25.86 28.7887 25.944C28.3398 26.0817 27.8764 26.1668 27.4079 26.1976C26.5052 26.2682 25.5984 26.1313 24.7567 25.7976C24.4407 25.6744 24.0813 25.7638 23.8599 26.0208C22.6951 27.3588 20.7016 27.5862 19.2654 26.5449C17.8293 25.5037 17.4256 23.5382 18.3351 22.0152C18.5629 21.6357 18.4398 21.1434 18.0603 20.9156C17.6808 20.6879 17.1885 20.8109 16.9607 21.1904C16.3423 22.214 16.115 23.4267 16.3207 24.6048C14.5345 24.9913 12.6818 24.3493 11.5178 22.9403C10.3538 21.5314 10.0729 19.5908 10.7895 17.9096C10.9685 18.0907 11.1683 18.2499 11.3847 18.384C11.7626 18.6054 12.2483 18.4817 12.4743 18.1066C12.7003 17.7314 12.5826 17.2442 12.2103 17.0136H12.2127ZM8.69269 23.44C9.06149 23.3856 9.44229 23.3376 9.82069 23.288C11.2998 25.6517 14.1288 26.7994 16.8367 26.1344C17.5643 27.5154 18.8938 28.4784 20.4328 28.7392C21.9717 29 23.5443 28.5289 24.6863 27.4648C25.2299 27.627 25.7899 27.7284 26.3559 27.7672C26.7423 29.2328 27.8591 30.1208 30.2055 30.9072C30.838 31.1055 31.4023 31.4772 31.8343 31.98C32.3145 32.5511 33.021 32.883 33.7671 32.888C34.0934 32.8879 34.4164 32.8221 34.7167 32.6944C35.6235 32.3069 36.2118 31.4158 36.2119 30.4296C36.2126 30.1724 36.1716 29.9168 36.0903 29.6728C35.9104 29.1076 35.6734 28.5621 35.3831 28.0448C36.7435 27.0669 37.6911 25.6176 38.0415 23.9792C38.2119 23.7768 38.366 23.5612 38.5023 23.3344C38.7703 23.3688 39.0383 23.3992 39.3079 23.444L42.1959 40.8152C36.5507 38.9302 30.4459 38.9302 24.8007 40.8152V30.8008C24.8007 30.359 24.4425 30.0008 24.0007 30.0008C23.5589 30.0008 23.2007 30.359 23.2007 30.8008V40.8184C17.5561 38.9317 11.4514 38.9294 5.80549 40.812L8.69269 23.44ZM2.12149 44.1064C1.97033 43.9238 1.90871 43.6832 1.95349 43.4504L5.45669 25.4648H6.73669L4.22629 40.552C4.138 41.1012 4.3402 41.6569 4.76075 42.0209C5.18129 42.3849 5.76028 42.5053 6.29109 42.3392C10.5559 40.9575 15.0995 40.6692 19.5047 41.5008L19.2663 44.4008H2.74469C2.50335 44.401 2.27464 44.2929 2.12149 44.1064ZM24.0007 46.0008C22.0735 46.0008 20.9679 45.4312 20.8055 45.1776L21.0807 41.8576C21.9604 42.0766 22.8212 42.3653 23.6551 42.7208C23.7629 42.7728 23.881 42.8001 24.0007 42.8008C24.1207 42.8006 24.2391 42.7733 24.3471 42.7208C25.1805 42.3632 26.0411 42.0727 26.9207 41.852L27.1959 45.1768C27.0335 45.4312 25.9279 46.0008 24.0007 46.0008ZM45.8799 44.1064C45.7267 44.2929 45.498 44.401 45.2567 44.4008H28.7375L28.4975 41.4952C32.9052 40.6653 37.4507 40.9561 41.7167 42.3408C42.2474 42.5048 42.8251 42.3826 43.244 42.0179C43.663 41.6532 43.8636 41.0978 43.7743 40.5496L41.2663 25.4656H42.5463L46.0503 43.4496C46.0947 43.683 46.0321 43.924 45.8799 44.1064Z" fill="black"/>
</svg>
