<svg width="30" height="48" viewBox="0 0 30 48" fill="none" xmlns="http://www.w3.org/2000/svg">
<path d="M25.5125 47.2969H4.48828C2.93494 47.2969 1.67578 46.0377 1.67578 44.4844V3.51562C1.67578 1.96228 2.93494 0.703125 4.48828 0.703125H25.5126C27.0659 0.703125 28.3251 1.96228 28.3251 3.51562V44.4844C28.325 46.0377 27.0658 47.2969 25.5125 47.2969Z" fill="#D8ECFE"/>
<path d="M25.5117 0.703125H22.6992C24.2526 0.703125 25.5117 1.96228 25.5117 3.51562V44.4844C25.5117 46.0377 24.2526 47.2969 22.6992 47.2969H25.5117C27.0651 47.2969 28.3242 46.0377 28.3242 44.4844V3.51562C28.3242 1.96228 27.0651 0.703125 25.5117 0.703125Z" fill="#C4E2FF"/>
<path d="M25.5125 48H4.48828C2.54972 48 0.972656 46.4229 0.972656 44.4844V3.51562C0.972656 1.57706 2.54972 0 4.48828 0H25.5126C27.4511 0 29.0282 1.57706 29.0282 3.51562V44.4844C29.0281 46.4229 27.451 48 25.5125 48ZM4.48828 1.40625C3.32512 1.40625 2.37891 2.35247 2.37891 3.51562V44.4844C2.37891 45.6475 3.32512 46.5938 4.48828 46.5938H25.5126C26.6757 46.5938 27.6219 45.6475 27.6219 44.4844V3.51562C27.6219 2.35247 26.6757 1.40625 25.5126 1.40625H4.48828Z" fill="#3F6E90"/>
<path d="M19.5101 4.41825H10.4922C9.97441 4.41825 9.55469 3.99853 9.55469 3.48075V0.703125H20.4476V3.48075C20.4476 3.99853 20.0278 4.41825 19.5101 4.41825Z" fill="#3F6E90"/>
<path d="M15 26.5137C19.8929 26.5137 23.8594 22.5472 23.8594 17.6543C23.8594 12.7614 19.8929 8.79492 15 8.79492C10.1071 8.79492 6.14062 12.7614 6.14062 17.6543C6.14062 22.5472 10.1071 26.5137 15 26.5137Z" fill="white"/>
<path d="M15 8.79492C14.5214 8.79492 14.0518 8.83336 13.5938 8.90648C17.8183 9.58036 21.0469 13.2401 21.0469 17.6543C21.0469 22.0686 17.8183 25.7283 13.5938 26.4021C14.0518 26.4751 14.5214 26.5137 15 26.5137C19.8929 26.5137 23.8594 22.5472 23.8594 17.6543C23.8594 12.7614 19.8929 8.79492 15 8.79492Z" fill="#F9F7F8"/>
<path d="M14.9989 19.1133C11.9779 19.1133 9.49733 21.4232 9.22461 24.373C10.7753 25.707 12.7928 26.5135 14.9989 26.5135C17.2049 26.5135 19.2223 25.707 20.7731 24.373C20.5004 21.4233 18.0198 19.1133 14.9989 19.1133Z" fill="#F58A97"/>
<path d="M14.9989 19.1133C11.9779 19.1133 9.49733 21.4232 9.22461 24.373C10.7753 25.707 12.7928 26.5135 14.9989 26.5135C17.2049 26.5135 19.2223 25.707 20.7731 24.373C20.5004 21.4233 18.0198 19.1133 14.9989 19.1133Z" fill="#F58A97"/>
<path d="M19.96 21.9077C19.5856 22.5909 18.7896 23.8269 17.3262 24.871C16.2406 25.6454 14.973 26.181 13.5996 26.401C14.0562 26.4735 14.5237 26.5135 15.0007 26.5135C17.2067 26.5135 19.2241 25.7069 20.775 24.373C20.6921 23.4762 20.4041 22.6393 19.96 21.9077Z" fill="#F07281"/>
<path d="M14.9993 20.3345C13.3094 20.3345 11.9395 18.9646 11.9395 17.2747V16.1077C11.9395 14.4178 13.3093 13.0479 14.9993 13.0479C16.6891 13.0479 18.0591 14.4177 18.0591 16.1077V17.2747C18.0591 18.9645 16.6891 20.3345 14.9993 20.3345Z" fill="#FFCEBF"/>
<path d="M15 13.0479C14.4928 13.0479 14.0149 13.172 13.5938 13.3904C14.5759 13.8998 15.2473 14.925 15.2473 16.1077V17.2747C15.2473 18.4573 14.5759 19.4826 13.5938 19.9919C14.0149 20.2104 14.4928 20.3345 15 20.3345C16.6898 20.3345 18.0598 18.9646 18.0598 17.2747V16.1077C18.0598 14.4177 16.6898 13.0479 15 13.0479Z" fill="#FFB09E"/>
<path d="M23.1687 34.0137H6.83203C6.31425 34.0137 5.89453 33.594 5.89453 33.0762V31.6699C5.89453 31.1521 6.31425 30.7324 6.83203 30.7324H23.1688C23.6866 30.7324 24.1063 31.1521 24.1063 31.6699V33.0762C24.1062 33.594 23.6865 34.0137 23.1687 34.0137Z" fill="white"/>
<path d="M23.1687 40.1074H6.83203C6.31425 40.1074 5.89453 39.6877 5.89453 39.1699V37.7637C5.89453 37.2459 6.31425 36.8262 6.83203 36.8262H23.1688C23.6866 36.8262 24.1063 37.2459 24.1063 37.7637V39.1699C24.1062 39.6877 23.6865 40.1074 23.1687 40.1074Z" fill="white"/>
<path d="M23.168 36.8262H20.3555C20.8733 36.8262 21.293 37.2459 21.293 37.7637V39.1699C21.293 39.6877 20.8733 40.1074 20.3555 40.1074H23.168C23.6858 40.1074 24.1055 39.6877 24.1055 39.1699V37.7637C24.1055 37.2459 23.6858 36.8262 23.168 36.8262Z" fill="#F9F7F8"/>
<path d="M23.168 30.7324H20.3555C20.8733 30.7324 21.293 31.1521 21.293 31.6699V33.0762C21.293 33.594 20.8733 34.0137 20.3555 34.0137H23.168C23.6858 34.0137 24.1055 33.594 24.1055 33.0762V31.6699C24.1055 31.1521 23.6858 30.7324 23.168 30.7324Z" fill="#F9F7F8"/>
<path d="M24.1062 43.7812H5.89453C5.50622 43.7812 5.19141 43.4664 5.19141 43.0781C5.19141 42.6898 5.50622 42.375 5.89453 42.375H24.1063C24.4946 42.375 24.8094 42.6898 24.8094 43.0781C24.8094 43.4664 24.4945 43.7812 24.1062 43.7812Z" fill="white"/>
</svg>
