<svg width="48" height="48" viewBox="0 0 48 48" fill="none" xmlns="http://www.w3.org/2000/svg">
<g clip-path="url(#clip0)">
<path d="M41.243 23.8222C43.5805 24.2498 45.358 26.3 45.358 28.7587C45.358 31.3055 43.4504 33.4146 40.9884 33.7347C40.3876 37.2083 38.7368 40.4069 36.1933 42.9504C32.937 46.2067 28.607 48 24.002 48H24.0009C19.3891 48 15.0545 46.1784 11.7937 42.8712C9.29548 40.3367 7.6628 37.1709 7.04051 33.7381C4.56604 33.4315 2.64258 31.3157 2.64258 28.7587C2.64258 26.3 4.42008 24.2498 6.75765 23.8222V14.8091C6.54833 14.9324 6.35033 15.0806 6.16929 15.2571C5.63751 15.7708 4.86021 15.8511 4.23565 15.4563C3.6111 15.0602 3.34973 14.3248 3.5862 13.6244L4.02747 12.3199C4.26733 11.6105 4.61921 10.952 5.06387 10.367C5.5651 5.66699 8.81461 2.35977 14.482 0.796116C18.8109 -0.398691 23.408 -0.245946 27.7743 1.23625L33.4575 3.16536C35.183 2.55664 37.0917 2.78859 38.6293 3.80802C40.2654 4.89421 41.243 6.71584 41.243 8.68003V23.8222ZM43.5477 28.7587C43.5477 27.3036 42.5736 26.0715 41.243 25.68V30.7579C41.243 31.1222 41.2305 31.4866 41.2079 31.8475C42.5566 31.4673 43.5477 30.2273 43.5477 28.7587ZM39.4327 30.7579V22.3501C35.622 21.901 32.6564 18.6526 32.6564 14.7231V12.2667C30.1084 14.9448 26.7933 16.7619 23.1048 17.4646C18.5586 18.3301 13.922 17.4137 10.0479 14.8849C9.58965 14.5862 9.0805 14.421 8.56796 14.3825V30.5859C8.56796 34.7349 10.1712 38.6464 13.0824 41.5994C16.0004 44.5593 19.8779 46.1897 24.0009 46.1897C24.0009 46.1897 24.0009 46.1897 24.002 46.1897C28.1239 46.1897 31.9991 44.5842 34.9125 41.6696C37.8283 38.755 39.4327 34.8798 39.4327 30.7579ZM39.4327 20.5251V8.68003C39.4327 7.30306 38.7753 6.0777 37.628 5.31624C36.6493 4.66679 35.4964 4.47897 34.3909 4.77088L34.4667 14.7231C34.4667 17.6524 36.6233 20.0884 39.4327 20.5251ZM32.6519 9.4562L32.5806 4.7788L27.1927 2.95039C23.1704 1.58473 18.9411 1.4433 14.9629 2.5408C10.9576 3.64623 8.41069 5.62173 7.35844 8.42658C7.51458 8.34512 7.67412 8.26705 7.83705 8.1969C9.63378 7.42752 11.6794 7.4592 13.4501 8.28402C15.4698 9.22538 17.9114 8.71736 19.388 7.04735L19.6131 6.79391C19.9435 6.4194 20.516 6.38432 20.8905 6.71584C21.265 7.04735 21.3001 7.61986 20.9686 7.99324L20.7446 8.24782C18.7408 10.5118 15.4279 11.202 12.6864 9.92575C11.3807 9.31816 9.87365 9.2944 8.54986 9.86125C7.22607 10.4281 6.20324 11.5347 5.74274 12.8992L5.56623 13.4197C7.19212 12.3074 9.33621 12.2599 11.0368 13.3699C14.5171 15.6407 18.6831 16.4632 22.7653 15.6859C26.7526 14.9267 30.2521 12.7182 32.6519 9.4562ZM6.8029 31.8498C6.77349 31.4311 6.75765 31.0102 6.75765 30.5859V25.68C5.42707 26.0715 4.45289 27.3036 4.45289 28.7587C4.45289 30.2307 5.44969 31.473 6.8029 31.8498Z" fill="#333333"/>
<path d="M41.2421 25.6797C42.5727 26.0712 43.5469 27.3033 43.5469 28.7584C43.5469 30.227 42.5557 31.467 41.207 31.8472C41.2297 31.4863 41.2421 31.1219 41.2421 30.7576V25.6797Z" fill="#FFEBFA"/>
<path d="M39.4331 22.35V30.7578C39.4331 34.8797 37.8287 38.7549 34.9129 41.6695C31.9995 44.5841 28.1243 46.1896 24.0024 46.1896C24.0013 46.1896 24.0013 46.1896 24.0013 46.1896C19.8783 46.1896 16.0008 44.5592 13.0828 41.5993C10.1716 38.6463 8.56836 34.7348 8.56836 30.5858V14.3824C9.0809 14.4209 9.59005 14.5861 10.0483 14.8848C13.9224 17.4135 18.559 18.33 23.1052 17.4645C26.7937 16.7618 30.1088 14.9447 32.6568 12.2666V14.723C32.6568 18.6525 35.6224 21.9009 39.4331 22.35ZM35.8226 28.2675C36.1768 27.9145 36.1768 27.3409 35.8226 26.9878C35.1686 26.3339 34.2986 25.9729 33.373 25.9729C32.4475 25.9729 31.5774 26.3339 30.9235 26.9878C30.5693 27.3409 30.5693 27.9145 30.9235 28.2675C31.1 28.4451 31.3319 28.5334 31.5627 28.5334C31.7947 28.5334 32.0266 28.4451 32.2031 28.2675C32.5154 27.9552 32.9306 27.7832 33.373 27.7832C33.8154 27.7832 34.2307 27.9552 34.543 28.2675C34.896 28.6216 35.4696 28.6216 35.8226 28.2675ZM34.1673 36.2046C34.1673 35.1161 33.8494 34.2619 33.2226 33.6656C31.9497 32.455 29.7694 32.5647 27.0075 32.7039C26.0435 32.7514 25.0479 32.8023 24.0013 32.8023C22.9547 32.8023 21.9579 32.7514 20.9939 32.7039C18.2332 32.5647 16.0517 32.455 14.7789 33.6656C14.1532 34.2619 13.8352 35.1161 13.8352 36.2046C13.8352 38.2819 14.9316 40.2156 16.9241 41.648C18.826 43.0159 21.339 43.7694 24.0013 43.7694C26.6624 43.7694 29.1754 43.0159 31.0773 41.648C33.0698 40.2156 34.1673 38.2819 34.1673 36.2046ZM17.0791 28.2675C17.4321 27.9145 17.4321 27.3409 17.0791 26.9878C16.424 26.3339 15.5539 25.9729 14.6284 25.9729C13.7029 25.9729 12.8328 26.3339 12.1788 26.9878C11.8258 27.3409 11.8258 27.9145 12.1788 28.2675C12.3553 28.4451 12.5873 28.5334 12.8192 28.5334C13.0511 28.5334 13.282 28.4451 13.4596 28.2675C13.7719 27.9552 14.1871 27.7832 14.6284 27.7832C15.0708 27.7832 15.486 27.9552 15.7983 28.2675C16.1524 28.6216 16.725 28.6216 17.0791 28.2675Z" fill="#F9E6D9"/>
<path d="M39.4324 8.6796V20.5247C36.623 20.088 34.4664 17.652 34.4664 14.7227L34.3906 4.77045C35.496 4.47854 36.649 4.66636 37.6277 5.31581C38.775 6.07727 39.4324 7.30263 39.4324 8.6796Z" fill="#CE8628"/>
<path d="M35.823 26.9876C36.1771 27.3406 36.1771 27.9142 35.823 28.2672C35.47 28.6214 34.8963 28.6214 34.5433 28.2672C34.231 27.9549 33.8158 27.783 33.3734 27.783C32.931 27.783 32.5158 27.9549 32.2035 28.2672C32.027 28.4449 31.795 28.5331 31.5631 28.5331C31.3323 28.5331 31.1003 28.4449 30.9238 28.2672C30.5697 27.9142 30.5697 27.3406 30.9238 26.9876C31.5778 26.3336 32.4479 25.9727 33.3734 25.9727C34.2989 25.9727 35.169 26.3336 35.823 26.9876Z" fill="#333333"/>
<path d="M33.2213 33.6653C33.8481 34.2616 34.1661 35.1158 34.1661 36.2043C34.1661 38.2816 33.0686 40.2153 31.0761 41.6477C29.1741 43.0156 26.6612 43.7691 24 43.7691C21.3377 43.7691 18.8248 43.0156 16.9228 41.6477C14.9304 40.2153 13.834 38.2816 13.834 36.2043C13.834 35.1158 14.1519 34.2616 14.7776 33.6653C16.0505 32.4547 18.2319 32.5644 20.9926 32.7036C21.9566 32.7511 22.9534 32.802 24 32.802C25.0466 32.802 26.0423 32.7511 27.0063 32.7036C29.7681 32.5644 31.9484 32.4547 33.2213 33.6653ZM32.3354 36.5969C32.349 36.4668 32.3557 36.3367 32.3557 36.2043C32.3557 35.3399 32.0684 35.0672 31.9745 34.9778C31.2639 34.3023 29.2397 34.403 27.0968 34.5116C26.1577 34.558 25.0919 34.6123 24 34.6123C22.907 34.6123 21.8424 34.558 20.9021 34.5116C20.118 34.472 19.3498 34.4336 18.6562 34.4336C17.4546 34.4336 16.4759 34.549 16.0256 34.9778C15.9306 35.0672 15.6443 35.3399 15.6443 36.2043C15.6443 36.3367 15.6511 36.4668 15.6647 36.5969C15.7235 37.209 15.9226 37.794 16.2406 38.3393C17.4738 40.4585 20.488 41.9588 24 41.9588C27.512 41.9588 30.5262 40.4585 31.7595 38.3393C32.0774 37.794 32.2765 37.209 32.3354 36.5969Z" fill="#333333"/>
<path d="M32.5808 4.77899L32.6521 9.45639C30.2523 12.7183 26.7527 14.9269 22.7655 15.6861C18.6833 16.4634 14.5173 15.6409 11.0369 13.3701C9.33638 12.2601 7.19229 12.3076 5.56641 13.4198L5.74291 12.8994C6.20341 11.5349 7.22624 10.4283 8.55003 9.86145C9.87382 9.29459 11.3809 9.31835 12.6866 9.92594C15.4281 11.2022 18.741 10.512 20.7448 8.248L20.9688 7.99343C21.3003 7.62005 21.2652 7.04754 20.8907 6.71603C20.5162 6.38451 19.9437 6.41959 19.6133 6.7941L19.3881 7.04754C17.9116 8.71755 15.47 9.22557 13.4503 8.28421C11.6796 7.45939 9.63395 7.42771 7.83722 8.19709C7.67429 8.26724 7.51476 8.34531 7.35862 8.42677C8.41086 5.62192 10.9577 3.64641 14.9631 2.54099C18.9412 1.44349 23.1706 1.58492 27.1929 2.95058L32.5808 4.77899Z" fill="#CE8628"/>
<path d="M32.3367 36.597C32.2779 37.2091 32.0788 37.7941 31.7608 38.3394C30.919 37.8393 29.1257 37.9298 27.097 38.0317C26.1579 38.0781 25.0932 38.1324 24.0014 38.1324C22.9095 38.1324 21.8448 38.0781 20.9046 38.0317C18.8771 37.9298 17.0848 37.8393 16.2419 38.3394C15.924 37.7941 15.7249 37.2091 15.666 36.597C16.9627 36.0211 18.8148 36.1139 20.9951 36.2236C21.9591 36.2723 22.9548 36.3221 24.0014 36.3221C25.048 36.3221 26.0436 36.2723 27.0065 36.2236C29.1868 36.1139 31.0401 36.0211 32.3367 36.597Z" fill="#333333"/>
<path d="M27.0973 38.0318C29.126 37.93 30.9193 37.8395 31.7611 38.3396C30.5278 40.4588 27.5136 41.9591 24.0016 41.9591C20.4896 41.9591 17.4755 40.4588 16.2422 38.3396C17.0851 37.8395 18.8773 37.93 20.9049 38.0318C21.8451 38.0782 22.9098 38.1325 24.0016 38.1325C25.0935 38.1325 26.1582 38.0782 27.0973 38.0318Z" fill="#CE0649"/>
<path d="M17.0791 26.9876C17.4321 27.3406 17.4321 27.9142 17.0791 28.2672C16.725 28.6214 16.1525 28.6214 15.7983 28.2672C15.486 27.9549 15.0708 27.783 14.6284 27.783C14.1871 27.783 13.7719 27.9549 13.4596 28.2672C13.282 28.4449 13.0512 28.5331 12.8192 28.5331C12.5873 28.5331 12.3553 28.4449 12.1788 28.2672C11.8258 27.9142 11.8258 27.3406 12.1788 26.9876C12.8328 26.3336 13.7029 25.9727 14.6284 25.9727C15.5539 25.9727 16.424 26.3336 17.0791 26.9876Z" fill="#333333"/>
<path d="M6.75788 30.5856C6.75788 31.0099 6.77372 31.4308 6.80314 31.8495C5.44993 31.4727 4.45312 30.2304 4.45312 28.7584C4.45312 27.3033 5.4273 26.0712 6.75788 25.6797V30.5856Z" fill="#FFEBFA"/>
</g>
<defs>
<clipPath id="clip0">
<rect width="48" height="48" fill="white"/>
</clipPath>
</defs>
</svg>
