<svg width="39" height="24" viewBox="0 0 39 24" fill="none" xmlns="http://www.w3.org/2000/svg">
<path fill-rule="evenodd" clip-rule="evenodd" d="M14.1016 21.4345H24.5546V2.56592H14.1016V21.4345Z" fill="#FF5F00"/>
<path fill-rule="evenodd" clip-rule="evenodd" d="M14.7654 12C14.7654 8.17197 16.5497 4.76265 19.3283 2.56566C17.296 0.958663 14.7322 0 11.9454 0C5.348 0 0 5.37265 0 12C0 18.6273 5.348 23.9999 11.9454 23.9999C14.7322 23.9999 17.296 23.0412 19.3283 21.4343C16.5497 19.2369 14.7654 15.8279 14.7654 12Z" fill="#EB001B"/>
<path fill-rule="evenodd" clip-rule="evenodd" d="M38.2834 19.4359V18.9703H38.1623L38.0232 19.2906L37.8839 18.9703H37.7627V19.4359H37.848V19.0846L37.9788 19.3876H38.0674L38.1981 19.0839V19.4359H38.2834ZM37.5165 19.4359V19.0496H37.6718V18.9709H37.2769V19.0496H37.4319V19.4359H37.5165ZM38.6564 12C38.6564 18.6273 33.3081 23.9999 26.711 23.9999C23.9242 23.9999 21.36 23.0412 19.3281 21.4343C22.1067 19.2373 23.891 15.8279 23.891 12C23.891 8.1723 22.1067 4.76298 19.3281 2.56566C21.36 0.958663 23.9242 0 26.711 0C33.3081 0 38.6564 5.37265 38.6564 12Z" fill="#F79E1B"/>
</svg>
