<svg width="48" height="48" viewBox="0 0 48 48" fill="none" xmlns="http://www.w3.org/2000/svg">
<g clip-path="url(#clip0)">
<path d="M36.3727 47.9998H15.4365C11.817 47.9998 8.88281 45.0656 8.88281 41.4461V6.55369C8.88281 2.93419 11.817 0 15.4365 0H36.3726C39.9921 0 42.9263 2.93419 42.9263 6.55369V41.4461C42.9263 45.0656 39.9922 47.9998 36.3727 47.9998Z" fill="#30579D"/>
<path d="M17.1066 47.9999H15.4367C11.8169 47.9999 8.88281 45.0658 8.88281 41.446V6.55387C8.88281 2.93409 11.8169 0 15.4367 0H17.1066C13.4868 0 10.5527 2.93409 10.5527 6.55387V41.446C10.5527 45.0658 13.4868 47.9999 17.1066 47.9999Z" fill="#26457D"/>
<path d="M15.4376 45.1026C13.4215 45.1026 11.7812 43.4623 11.7812 41.4462V6.5538C11.7812 4.53771 13.4215 2.89746 15.4376 2.89746H36.3737C38.3897 2.89746 40.03 4.53771 40.03 6.5538V41.4462C40.03 43.4623 38.3897 45.1026 36.3737 45.1026H15.4376Z" fill="#DEE8FD"/>
<path d="M11.7812 41.446H20.2761L22.1457 34.3012L20.2761 27.3926H11.7812V41.446Z" fill="#9DC6FB"/>
<path d="M22.1464 34.3016L20.2763 41.4464H11.7812V39.2815H20.2763L21.8584 33.2373L22.1464 34.3016Z" fill="#80B4FB"/>
<path d="M33.427 31.0543H32.4406C33.4738 31.0543 34.3072 30.1983 34.2702 29.1568C34.235 28.1647 33.3894 27.3927 32.3967 27.3927H27.1887L28.3037 21.7828C28.5571 20.508 27.9858 19.2109 26.8743 18.5373C25.8178 17.897 24.4443 18.4773 24.1669 19.6811L22.8646 25.3322C22.5867 26.5381 21.513 27.3926 20.2754 27.3926V41.446H30.7358C31.5832 41.446 32.2702 40.759 32.2702 39.9116C32.2702 39.0642 31.5832 38.3772 30.7358 38.3772H32.3966C33.3893 38.3772 34.2348 37.6052 34.2701 36.6132C34.3072 35.5716 33.4738 34.7157 32.4405 34.7157H33.4268C34.4379 34.7157 35.2576 33.896 35.2576 32.8849C35.2578 31.8739 34.4381 31.0543 33.427 31.0543Z" fill="#B46E59"/>
<path d="M26.8551 18.5246C26.4455 18.7649 26.1259 19.1663 26.0076 19.6816L24.705 25.3327C24.5562 25.9788 24.1789 26.5239 23.6704 26.8907C22.6742 27.6094 22.1162 28.7902 22.1162 30.0187V41.4459H20.2773V27.3928C21.5145 27.3928 22.5886 26.5389 22.8663 25.3328L24.1689 19.6817C24.3674 18.8169 25.1329 18.2734 25.9395 18.2734C26.2479 18.2734 26.5638 18.3535 26.8551 18.5246Z" fill="#A55E4D"/>
<path d="M37.1655 9.49408L36.8935 9.76605L36.6215 9.49408C34.6398 7.51239 31.4269 7.51239 29.4452 9.49408C27.4636 11.4758 27.4636 14.6887 29.4452 16.6704L29.7172 16.9423L36.8935 24.1186L44.0698 16.9423L44.3417 16.6704C46.3234 14.6887 46.3234 11.4758 44.3417 9.49408C42.3601 7.51248 39.1472 7.51248 37.1655 9.49408Z" fill="#E28086"/>
<path d="M36.8935 24.1191L29.7176 16.9422L29.4453 16.6708C28.4544 15.6799 27.959 14.3809 27.959 13.0829C27.959 11.7839 28.4545 10.4849 29.4453 9.49405C30.6796 8.25974 32.3929 7.79427 33.9874 8.09755C33.405 8.28102 32.8487 8.74658 32.3967 9.49405C31.798 10.485 31.4995 11.7839 31.4995 13.0829C31.4995 14.381 31.798 15.68 32.3967 16.6708L32.5609 16.9422L36.8935 24.1191Z" fill="#DD636E"/>
<path d="M19.0808 5.13965H5.79795C3.79423 5.13965 2.16992 6.76396 2.16992 8.76768V16.7394C2.16992 18.7432 3.79423 20.3675 5.79795 20.3675H11.0581L14.8493 24.1587C15.8687 25.1781 17.6117 24.4561 17.6117 23.0145V20.3676H19.0808C21.0845 20.3676 22.7089 18.7432 22.7089 16.7395V8.76778C22.7089 6.76406 21.0845 5.13965 19.0808 5.13965Z" fill="#F6DE81"/>
<path d="M4.20186 8.76717V16.7388C4.20186 18.7428 5.82533 20.3663 7.82933 20.3663H5.79739C3.79433 20.3663 2.16992 18.7428 2.16992 16.7388V8.76717C2.16992 6.76317 3.79442 5.13867 5.79739 5.13867H7.82942C5.82542 5.13867 4.20186 6.76317 4.20186 8.76717Z" fill="#F2CE6B"/>
<path d="M17.0098 24.2747C16.4101 24.7518 15.4877 24.7963 14.8494 24.1579L11.0586 20.3662H13.0906L16.8813 24.1579C16.9229 24.1995 16.9664 24.2381 17.0098 24.2747Z" fill="#F2CE6B"/>
<path d="M14.502 9.31093H5.73408C5.33405 9.31093 5.00977 8.98665 5.00977 8.58662C5.00977 8.18659 5.33405 7.8623 5.73408 7.8623H14.502C14.902 7.8623 15.2263 8.18659 15.2263 8.58662C15.2263 8.98665 14.902 9.31093 14.502 9.31093Z" fill="#A8D4A4"/>
<path d="M14.502 12.4906H5.73408C5.33405 12.4906 5.00977 12.1663 5.00977 11.7663C5.00977 11.3663 5.33405 11.042 5.73408 11.042H14.502C14.902 11.042 15.2263 11.3663 15.2263 11.7663C15.2263 12.1663 14.902 12.4906 14.502 12.4906Z" fill="#A8D4A4"/>
<path d="M14.502 15.6703H5.73408C5.33405 15.6703 5.00977 15.346 5.00977 14.946C5.00977 14.546 5.33405 14.2217 5.73408 14.2217H14.502C14.902 14.2217 15.2263 14.546 15.2263 14.946C15.2263 15.346 14.902 15.6703 14.502 15.6703Z" fill="#A8D4A4"/>
</g>
<defs>
<clipPath id="clip0">
<rect width="48" height="48" fill="white"/>
</clipPath>
</defs>
</svg>
